<svg t="1715185661355" class="icon" viewBox="0 0 1024 1024" version="1.1" xmlns="http://www.w3.org/2000/svg" p-id="10585" width="128" height="128"><path d="M512 40.96L167.936 270.336h688.128L512 40.96z m0 98.304a32.768 32.768 0 1 1 0 65.536 32.768 32.768 0 0 1 0-65.536zM258.048 286.72v327.68h65.536V286.72h-65.536z m147.456 0v327.68h65.536V286.72h-65.536z m147.456 0v327.68h65.536V286.72h-65.536z m147.456 0v327.68h65.536V286.72h-65.536zM184.32 630.784v65.536h655.36v-65.536H184.32zM151.552 712.704v65.536h720.896v-65.536H151.552z" fill="" p-id="10586"></path></svg>