<svg t="1715185585612" class="icon" viewBox="0 0 1024 1024" version="1.1" xmlns="http://www.w3.org/2000/svg" p-id="9564" width="128" height="128"><path d="M519.826286 99.766857a27.721143 27.721143 0 1 0-55.478857 0v94.025143a27.721143 27.721143 0 1 0 55.478857 0V99.766857z m-150.089143 292.498286a186.916571 186.916571 0 1 0 175.725714 122.953143 27.721143 27.721143 0 0 1 26.038857-37.229715h269.714286v-85.723428H369.773714zM868.937143 336.822857c15.36 0 27.757714 12.434286 27.757714 27.721143v141.165714c0 15.323429-12.434286 27.721143-27.757714 27.721143h-261.12a242.395429 242.395429 0 1 1-238.08-196.644571h499.2z m-499.2 195.035429a47.36 47.36 0 1 0 0 94.72 47.36 47.36 0 0 0 0-94.72zM266.971429 579.218286a102.802286 102.802286 0 1 1 205.641142 0 102.802286 102.802286 0 0 1-205.641142 0zM300.763429 142.262857a27.721143 27.721143 0 0 1 39.204571-0.987428l68.132571 64.768a27.721143 27.721143 0 1 1-38.217142 40.228571L301.750857 181.467429a27.721143 27.721143 0 0 1-0.987428-39.204572z m343.478857-0.987428a27.721143 27.721143 0 1 1 38.217143 40.192l-68.132572 64.768a27.721143 27.721143 0 1 1-38.217143-40.192l68.132572-64.768z" fill="#2C2C2C" p-id="9565"></path></svg>