<svg t="1715185453900" class="icon" viewBox="0 0 1097 1024" version="1.1" xmlns="http://www.w3.org/2000/svg" p-id="7537" width="128" height="128"><path d="M116.516571 185.563429c0-56.027429 45.421714-101.449143 101.449143-101.449143h652.8c56.100571 0 101.522286 45.421714 101.522286 101.449143v652.8c0 56.100571-45.421714 101.522286-101.522286 101.522285H217.965714a101.522286 101.522286 0 0 1-101.449143-101.522285V185.563429zM217.965714 171.885714a13.750857 13.750857 0 0 0-13.677714 13.677715v652.8c0 7.606857 6.144 13.750857 13.677714 13.750857h652.8a13.750857 13.750857 0 0 0 13.750857-13.750857V185.563429a13.750857 13.750857 0 0 0-13.750857-13.677715H217.965714z" fill="#595959" p-id="7538"></path><path d="M928.329143 363.885714h-768v-87.771428h768v87.771428zM800.329143 555.885714h-384V468.114286h384v87.771428zM352.329143 555.885714h-64V468.114286h64v87.771428zM800.329143 747.885714h-384v-87.771428h384v87.771428zM352.329143 747.885714h-64v-87.771428h64v87.771428z" fill="#595959" p-id="7539"></path></svg>