<svg t="1715185186853" class="icon" viewBox="0 0 1024 1024" version="1.1" xmlns="http://www.w3.org/2000/svg" p-id="5497" width="128" height="128"><path d="M1016.832 649.728L849.92 138.752l-14.336-4.096c-114.176-33.28-242.688-8.704-249.344-7.68-6.144-27.136-10.752-50.688-12.288-68.096-1.536-14.336-12.8-26.624-27.136-28.16-11.264-1.536-52.736-5.12-88.064 10.24-1.536 0.512-3.072 1.536-5.12 2.048C331.264 97.792 220.16 105.472 124.416 66.56c-11.776-4.608-23.552-7.68-35.84-9.216-8.704-1.024-17.408-1.024-26.624-1.024l-2.048-5.632L5.12 68.096 77.824 302.08l209.408 691.2s7.168 30.72 35.84 22.528c29.696-8.704 18.944-37.888 18.944-37.888l-100.864-333.312c18.432 3.072 58.368 8.704 111.616 8.704 11.776 0 23.552-0.512 34.816-1.024 29.696-1.536 58.88-4.608 87.552-9.216l1.536 50.176c0.512 14.848 8.192 27.648 20.48 35.328 6.656 4.096 14.336 6.144 22.016 6.144 6.144 0 12.8-1.536 18.432-4.096 54.272-26.112 132.608-47.616 163.84-55.296 10.752-2.56 20.48-4.608 29.696-5.632 128.512-14.336 208.384 12.8 236.544 25.088 12.8 5.632 28.16 3.072 38.912-6.656 10.752-9.728 14.848-25.088 10.24-38.4zM386.56 594.944c-79.872 4.096-136.704-7.168-139.264-7.68l-3.584-0.512c-16.896-1.536-23.04-16.896-24.064-20.48L128.512 270.848l-47.104-156.16h1.536c6.656 0.512 13.824 2.56 20.48 5.12 71.68 28.672 150.528 35.84 235.008 20.48 66.56-12.288 117.248-34.816 139.264-44.544 1.536-0.512 3.072-1.536 4.608-2.048 12.288-5.12 26.624-7.168 38.4-7.168 17.92 113.664 100.352 352.256 129.024 434.688-94.72 54.784-195.072 70.144-263.168 73.728z m509.952 20.48c-52.224-8.704-110.08-9.728-171.008-3.072-12.288 1.536-25.088 3.584-37.376 6.656-35.84 9.216-101.376 27.648-154.112 50.176l-1.024-38.4c1.536-0.512 3.072-0.512 4.096-1.024 59.392-15.872 114.176-39.936 162.816-71.68l19.456-12.288-7.68-21.504c-1.024-2.56-70.656-196.096-110.08-341.504 19.456-3.072 116.736-17.92 204.288 3.072l143.872 440.832c-16.896-4.608-34.304-8.192-53.248-11.264z" p-id="5498"></path></svg>